<svg width="16" height="12" viewBox="0 0 16 12" fill="none" xmlns="http://www.w3.org/2000/svg">
<path d="M5.42226 8.70925L13.7898 0.34175C14.0176 0.113916 14.2848 0 14.5913 0C14.8978 0 15.165 0.113916 15.393 0.34175C15.6208 0.56975 15.7348 0.840167 15.7348 1.153C15.7348 1.46583 15.6208 1.73625 15.393 1.96425L6.22401 11.1523C5.99601 11.3801 5.72876 11.494 5.42226 11.494C5.11576 11.494 4.84851 11.3801 4.62051 11.1523L0.332507 6.86425C0.104674 6.63625 -0.00607639 6.36583 0.000256939 6.053C0.00659027 5.74017 0.123674 5.46975 0.351507 5.24175C0.579507 5.01392 0.849924 4.9 1.16276 4.9C1.47559 4.9 1.74601 5.01392 1.97401 5.24175L5.42226 8.70925Z" fill="#05A0B8"/>
</svg>
