<svg width="12" height="8" viewBox="0 0 12 8" fill="none" xmlns="http://www.w3.org/2000/svg">
<path d="M6.0001 7.3626C5.85076 7.3626 5.70785 7.33676 5.57135 7.2851C5.43468 7.23343 5.31035 7.15168 5.19835 7.03985L0.604348 2.44585C0.393181 2.23451 0.287598 1.96926 0.287598 1.6501C0.287598 1.33093 0.393181 1.06568 0.604348 0.854347C0.815681 0.643181 1.08093 0.537598 1.4001 0.537598C1.71926 0.537598 1.98451 0.643181 2.19585 0.854347L6.0001 4.65885L9.80435 0.854347C10.0157 0.643181 10.2809 0.537598 10.6001 0.537598C10.9193 0.537598 11.1845 0.643181 11.3958 0.854347C11.607 1.06568 11.7126 1.33093 11.7126 1.6501C11.7126 1.96926 11.607 2.23451 11.3958 2.44585L6.80185 7.03985C6.68985 7.15168 6.56551 7.23343 6.42885 7.2851C6.29235 7.33676 6.14943 7.3626 6.0001 7.3626Z" fill="#4D4D4D"/>
</svg>
