<svg width="12" height="7" viewBox="0 0 12 7" fill="none" xmlns="http://www.w3.org/2000/svg">
<path d="M5.7125 6.825C5.56317 6.825 5.42025 6.79917 5.28375 6.7475C5.14708 6.69583 5.02275 6.61408 4.91075 6.50225L0.31675 1.90825C0.105584 1.69692 0 1.43167 0 1.1125C0 0.793333 0.105584 0.528083 0.31675 0.31675C0.528084 0.105583 0.793333 0 1.1125 0C1.43167 0 1.69692 0.105583 1.90825 0.31675L5.7125 4.12125L9.51675 0.31675C9.72808 0.105583 9.99333 0 10.3125 0C10.6317 0 10.8969 0.105583 11.1083 0.31675C11.3194 0.528083 11.425 0.793333 11.425 1.1125C11.425 1.43167 11.3194 1.69692 11.1083 1.90825L6.51425 6.50225C6.40225 6.61408 6.27792 6.69583 6.14125 6.7475C6.00475 6.79917 5.86183 6.825 5.7125 6.825Z" fill="#4D4D4D"/>
</svg>
