<svg width="25" height="25" viewBox="0 0 25 25" fill="none" xmlns="http://www.w3.org/2000/svg">
<mask id="mask0_222_3565" style="mask-type:alpha" maskUnits="userSpaceOnUse" x="0" y="0" width="25" height="25">
<rect x="0.5" y="0.5" width="24" height="24" fill="#D9D9D9"/>
</mask>
<g mask="url(#mask0_222_3565)">
<path d="M12.5001 14.0913L7.69585 18.8958C7.48451 19.1069 7.21926 19.2125 6.9001 19.2125C6.58093 19.2125 6.31568 19.1069 6.10435 18.8958C5.89318 18.6844 5.7876 18.4192 5.7876 18.1C5.7876 17.7808 5.89318 17.5156 6.10435 17.3043L10.9088 12.5L6.10435 7.69576C5.89318 7.48442 5.7876 7.21917 5.7876 6.90001C5.7876 6.58084 5.89318 6.31559 6.10435 6.10426C6.31568 5.89309 6.58093 5.78751 6.9001 5.78751C7.21926 5.78751 7.48451 5.89309 7.69585 6.10426L12.5001 10.9088L17.3043 6.10426C17.5157 5.89309 17.7809 5.78751 18.1001 5.78751C18.4193 5.78751 18.6845 5.89309 18.8958 6.10426C19.107 6.31559 19.2126 6.58084 19.2126 6.90001C19.2126 7.21917 19.107 7.48442 18.8958 7.69576L14.0913 12.5L18.8958 17.3043C19.107 17.5156 19.2126 17.7808 19.2126 18.1C19.2126 18.4192 19.107 18.6844 18.8958 18.8958C18.6845 19.1069 18.4193 19.2125 18.1001 19.2125C17.7809 19.2125 17.5157 19.1069 17.3043 18.8958L12.5001 14.0913Z" fill="white"/>
</g>
</svg>
