<svg width="25" height="25" viewBox="0 0 25 25" fill="none" xmlns="http://www.w3.org/2000/svg">
<mask id="mask0_222_3554" style="mask-type:alpha" maskUnits="userSpaceOnUse" x="0" y="0" width="25" height="25">
<rect x="0.5" y="0.5" width="24" height="24" fill="#D9D9D9"/>
</mask>
<g mask="url(#mask0_222_3554)">
<path d="M12.5001 15.9495C12.3508 15.9495 12.2079 15.9237 12.0714 15.872C11.9347 15.8203 11.8104 15.7386 11.6984 15.6268L8.00888 11.937C7.78488 11.713 7.67604 11.4478 7.68238 11.1413C7.68871 10.8348 7.79754 10.5696 8.00888 10.3458C8.23671 10.1178 8.50604 10.0006 8.81687 9.99425C9.12787 9.98792 9.39729 10.0987 9.62512 10.3265L11.3626 12.064V5.43425C11.3626 5.11509 11.4724 4.84567 11.6919 4.626C11.9115 4.4065 12.181 4.29675 12.5001 4.29675C12.8193 4.29675 13.0887 4.4065 13.3084 4.626C13.5279 4.84567 13.6376 5.11509 13.6376 5.43425V12.064L15.3751 10.3265C15.599 10.0987 15.8664 9.98692 16.1774 9.99125C16.4882 9.99559 16.7575 10.1118 16.9854 10.3398C17.2007 10.5676 17.3115 10.8338 17.3179 11.1383C17.3242 11.4428 17.2134 11.709 16.9854 11.937L13.3019 15.6268C13.1899 15.7386 13.0655 15.8203 12.9289 15.872C12.7924 15.9237 12.6495 15.9495 12.5001 15.9495ZM6.57187 20.7033C5.94221 20.7033 5.40562 20.4815 4.96213 20.038C4.51863 19.5945 4.29688 19.0579 4.29688 18.4283V16.5658C4.29688 16.2466 4.40662 15.9772 4.62612 15.7575C4.84579 15.538 5.11521 15.4283 5.43437 15.4283C5.75354 15.4283 6.02296 15.538 6.24262 15.7575C6.46212 15.9772 6.57187 16.2466 6.57187 16.5658V18.4283H18.4284V16.5658C18.4284 16.2466 18.5381 15.9772 18.7576 15.7575C18.9773 15.538 19.2467 15.4283 19.5659 15.4283C19.885 15.4283 20.1545 15.538 20.3741 15.7575C20.5936 15.9772 20.7034 16.2466 20.7034 16.5658V18.4283C20.7034 19.0579 20.4816 19.5945 20.0381 20.038C19.5946 20.4815 19.058 20.7033 18.4284 20.7033H6.57187Z" fill="white"/>
</g>
</svg>
