<svg width="15" height="19" viewBox="0 0 15 19" fill="none" xmlns="http://www.w3.org/2000/svg">
<path d="M14.1667 10C14.1667 14.1667 11.25 16.25 7.78337 17.4584C7.60184 17.5199 7.40466 17.517 7.22504 17.45C3.75004 16.25 0.833374 14.1667 0.833374 10V4.16672C0.833374 3.9457 0.921172 3.73374 1.07745 3.57746C1.23373 3.42118 1.44569 3.33338 1.66671 3.33338C3.33337 3.33338 5.41671 2.33338 6.86671 1.06672C7.04325 0.915881 7.26784 0.833008 7.50004 0.833008C7.73225 0.833008 7.95683 0.915881 8.13337 1.06672C9.59171 2.34172 11.6667 3.33338 13.3334 3.33338C13.5544 3.33338 13.7663 3.42118 13.9226 3.57746C14.0789 3.73374 14.1667 3.9457 14.1667 4.16672V10Z" stroke="#C8C8C8" stroke-width="1.66667" stroke-linecap="round"/>
</svg>
