<svg width="145" height="24" viewBox="0 0 145 24" fill="none" xmlns="http://www.w3.org/2000/svg">
<path d="M10.2202 23.6392C10.4474 23.8718 10.7645 24.0016 11.0895 24.0016H18.5741C22.5183 24.0016 25.7147 20.8036 25.7147 16.8571V7.14446C25.7147 3.19799 22.5183 0 18.5741 0H7.14059C3.19639 0.00158238 0 3.19958 0 7.14604V12.9075C0 13.2335 0.130948 13.5452 0.358134 13.7778L10.2202 23.6392ZM2.81301 7.90084C2.81301 6.00831 3.86848 4.36421 5.41461 3.51447C5.43354 3.50973 5.44774 3.50023 5.46194 3.49074C5.514 3.46225 5.56449 3.44327 5.61655 3.41636C6.20503 3.15527 6.84399 3.00969 7.51766 3.00969L18.2286 2.98596H18.3595C18.4337 2.98596 18.5094 2.99545 18.5835 3.0002C18.6167 3.00495 18.6482 3.00494 18.6813 3.00969C18.9527 3.02868 19.2272 3.06508 19.4844 3.15052C19.5459 3.17426 19.6011 3.198 19.6579 3.22015C19.7368 3.24863 19.8173 3.27079 19.8914 3.30402C19.9246 3.31826 19.9561 3.33725 19.9892 3.35149C20.0539 3.37997 20.1155 3.41162 20.1801 3.44485C20.2874 3.50023 20.3947 3.5572 20.502 3.62207C20.5619 3.66005 20.6235 3.69645 20.6834 3.73442C20.786 3.80405 20.8885 3.88 20.9863 3.95437C21.0384 3.9971 21.0889 4.03349 21.141 4.07622C21.2624 4.17433 21.3745 4.28193 21.4817 4.39428C21.5054 4.41801 21.5338 4.437 21.5559 4.4639C21.6868 4.59999 21.8083 4.74398 21.9203 4.89431C21.9535 4.93703 21.9803 4.98292 22.0134 5.0304C22.0923 5.138 22.168 5.25509 22.2374 5.37219C22.2706 5.43232 22.3021 5.49403 22.3353 5.55416C22.3952 5.66177 22.4473 5.77411 22.4993 5.88646C22.5277 5.95609 22.5546 6.02255 22.583 6.08743C22.6019 6.1349 22.6256 6.17604 22.6398 6.22351C22.6445 6.23775 22.6398 6.25199 22.6445 6.26624C22.6824 6.36909 22.7234 6.47195 22.7518 6.58429L7.52082 6.61753C6.75091 6.61753 6.10564 7.44511 6.10564 8.42935C6.10564 9.41359 6.74933 10.2412 7.51608 10.2412L17.8862 10.2032C20.6503 10.2032 22.9017 12.6322 22.9017 15.6181V15.7637C22.9017 18.7481 20.6503 21.1786 17.8909 21.1786H11.353V19.1278C11.353 18.7955 11.3246 18.4648 11.2694 18.1468C11.241 17.9553 11.2047 17.7686 11.1574 17.5819H17.8909C18.6561 17.5819 19.3014 16.7495 19.3014 15.7653V15.6197C19.3014 14.6386 18.6577 13.8079 17.8909 13.8079L8.57629 13.8411C8.29546 13.6496 8.00201 13.4772 7.69436 13.3316C6.85819 12.9249 5.91947 12.6955 4.93026 12.6955H4.44907C3.91739 12.2476 3.46775 11.6859 3.14117 11.0466C2.9124 10.6035 2.81459 10.1035 2.81459 9.60348V7.90717L2.81301 7.90084ZM1.18011 13.5531H4.93026C5.79483 13.5531 6.61049 13.7493 7.34412 14.099C8.9644 14.8839 10.1508 16.4251 10.4301 18.2702C10.4727 18.5455 10.4947 18.8304 10.4947 19.1199V22.867C10.4947 22.9651 10.378 23.0126 10.3086 22.9461L1.10438 13.7351C1.03496 13.6702 1.08545 13.5531 1.17853 13.5531H1.18011ZM31.7682 17.7528C31.0709 17.4663 30.514 17.0423 30.0975 16.4805C29.6794 15.9188 29.4601 15.2431 29.438 14.4519H32.5587C32.6044 14.8997 32.759 15.2399 33.0209 15.4757C33.2844 15.7115 33.6267 15.8286 34.0496 15.8286C34.4724 15.8286 34.8258 15.7289 35.0782 15.5279C35.3291 15.327 35.4553 15.05 35.4553 14.694C35.4553 14.3965 35.3559 14.1497 35.1555 13.955C34.9552 13.7604 34.709 13.599 34.4187 13.474C34.1269 13.3474 33.7135 13.205 33.1755 13.0452C32.3977 12.8046 31.7635 12.5641 31.2728 12.322C30.7822 12.0815 30.3578 11.727 30.0044 11.2555C29.6494 10.7855 29.4727 10.1716 29.4727 9.41518C29.4727 8.29169 29.8782 7.41188 30.6907 6.77576C31.5016 6.13965 32.5587 5.82159 33.8618 5.82159C35.165 5.82159 36.2567 6.13965 37.0677 6.77576C37.8786 7.41188 38.3125 8.29802 38.3708 9.43258H35.1997C35.176 9.04332 35.034 8.73634 34.7706 8.51322C34.5071 8.2901 34.171 8.17775 33.7593 8.17775C33.4043 8.17775 33.1187 8.2727 32.9026 8.461C32.6849 8.6493 32.5776 8.92306 32.5776 9.27751C32.5776 9.66678 32.7606 9.97059 33.1266 10.189C33.4926 10.4073 34.0638 10.6415 34.8416 10.8947C35.6178 11.159 36.2504 11.4106 36.7364 11.6511C37.2223 11.8916 37.6419 12.2413 37.9969 12.7002C38.3503 13.1591 38.5286 13.7493 38.5286 14.4709C38.5286 15.1925 38.3535 15.7843 38.0064 16.3444C37.6577 16.9062 37.1513 17.354 36.4887 17.6863C35.826 18.0186 35.0419 18.1847 34.1395 18.1847C33.2371 18.1847 32.4703 18.0423 31.773 17.7543L31.7682 17.7528ZM43.2017 5.99248V13.2145C43.2017 13.9376 43.3784 14.493 43.7334 14.8823C44.0868 15.2716 44.6074 15.4662 45.2937 15.4662C45.98 15.4662 46.5054 15.2716 46.8714 14.8823C47.2374 14.493 47.4204 13.936 47.4204 13.2145V5.99248H50.3518V13.1971C50.3518 14.2747 50.123 15.1861 49.6655 15.9314C49.2079 16.6767 48.5942 17.2385 47.8227 17.6167C47.0513 17.9949 46.1914 18.1847 45.2432 18.1847C44.295 18.1847 43.4462 17.998 42.6968 17.6262C41.9474 17.2543 41.3574 16.6926 40.922 15.9409C40.4881 15.1909 40.2704 14.2763 40.2704 13.1987V5.99407H43.2017V5.99248ZM61.0989 11.7951C60.7787 12.3742 60.288 12.841 59.6254 13.1971C58.9628 13.5531 58.1392 13.7303 57.1563 13.7303H55.3388V18.0629H52.4075V5.99248H57.1563C58.1155 5.99248 58.9281 6.15863 59.5907 6.49093C60.2533 6.82323 60.7503 7.28213 61.0816 7.86602C61.4129 8.44992 61.5786 9.12085 61.5786 9.87723C61.5786 10.5766 61.4192 11.2159 61.0989 11.7935V11.7951ZM58.185 10.996C58.4595 10.7317 58.5967 10.3599 58.5967 9.87882C58.5967 9.39777 58.4595 9.02433 58.185 8.76165C57.9104 8.4974 57.4939 8.36606 56.9339 8.36606H55.3388V11.3916H56.9339C57.4939 11.3916 57.9104 11.2602 58.185 10.996ZM66.0371 8.34865V10.7903H69.9624V13.0594H66.0371V15.7067H70.4767V18.0629H63.1058V5.99248H70.4767V8.34865H66.0371ZM78.8747 18.0629L76.3709 13.5072H75.6689V18.0629H72.7375V5.99248H77.6583C78.6065 5.99248 79.4158 6.15863 80.0848 6.49093C80.7537 6.82323 81.2539 7.27896 81.5852 7.85811C81.9165 8.43727 82.0821 9.08288 82.0821 9.79337C82.0821 10.5956 81.8565 11.3125 81.4053 11.9422C80.9541 12.572 80.2883 13.0198 79.408 13.2841L82.1847 18.0645H78.8763L78.8747 18.0629ZM75.6689 11.4264H77.4863C78.0228 11.4264 78.4266 11.295 78.6948 11.0308C78.9631 10.7665 79.0972 10.3947 79.0972 9.91363C79.0972 9.43258 78.9631 9.09395 78.6948 8.8297C78.4266 8.56702 78.0228 8.4341 77.4863 8.4341H75.6689V11.4264ZM94.885 11.7951C94.5648 12.3742 94.0741 12.841 93.4115 13.1971C92.7489 13.5531 91.9253 13.7303 90.9424 13.7303H89.1249V18.0629H86.1936V5.99248H90.9424C91.9016 5.99248 92.7141 6.15863 93.3768 6.49093C94.0394 6.82323 94.5364 7.28213 94.8677 7.86602C95.199 8.44992 95.3647 9.12085 95.3647 9.87723C95.3647 10.5766 95.2053 11.2159 94.885 11.7935V11.7951ZM91.9711 10.996C92.2456 10.7317 92.3828 10.3599 92.3828 9.87882C92.3828 9.39777 92.2456 9.02433 91.9711 8.76165C91.6965 8.49898 91.28 8.36606 90.72 8.36606H89.1249V11.3916H90.72C91.28 11.3916 91.6965 11.2602 91.9711 10.996ZM102.953 15.9298H98.4617L97.7422 18.0613H94.6736L99.028 5.9909H102.422L106.776 18.0613H103.673L102.953 15.9298ZM102.199 13.6607L100.708 9.24112L99.2347 13.6607H102.201H102.199ZM116.039 5.99248V8.34865H112.85V18.0629H109.919V8.34865H106.73V5.99248H116.039ZM117.787 8.8202C118.301 7.8866 119.017 7.1587 119.939 6.63651C120.858 6.11591 121.901 5.85482 123.067 5.85482C124.497 5.85482 125.719 6.23301 126.735 6.98938C127.753 7.74576 128.433 8.77748 128.775 10.0845H125.552C125.312 9.57975 124.971 9.19681 124.531 8.93255C124.091 8.66988 123.591 8.53695 123.031 8.53695C122.128 8.53695 121.396 8.85185 120.836 9.48322C120.276 10.1146 119.997 10.9564 119.997 12.0103C119.997 13.0642 120.276 13.9076 120.836 14.5374C121.396 15.1671 122.128 15.4836 123.031 15.4836C123.591 15.4836 124.091 15.3523 124.531 15.088C124.971 14.8238 125.311 14.4408 125.552 13.936H128.775C128.433 15.2431 127.753 16.2716 126.735 17.0217C125.718 17.7733 124.495 18.1483 123.067 18.1483C121.901 18.1483 120.858 17.8873 119.939 17.3651C119.019 16.8445 118.301 16.1182 117.787 15.1909C117.272 14.262 117.015 13.2018 117.015 12.0103C117.015 10.8188 117.272 9.75539 117.787 8.8202ZM140.999 5.99248V18.0629H138.068V13.0942H133.508V18.0629H130.577V5.99248H133.508V10.7206H138.068V5.99248H140.999ZM143.415 7.63816C142.924 7.63816 142.525 7.23782 142.525 6.7457C142.525 6.25358 142.924 5.85323 143.415 5.85323C143.905 5.85323 144.304 6.25358 144.304 6.7457C144.304 7.23782 143.905 7.63816 143.415 7.63816ZM143.415 6.03521C143.023 6.03521 142.706 6.35485 142.706 6.7457C142.706 7.13655 143.025 7.45619 143.415 7.45619C143.804 7.45619 144.123 7.13655 144.123 6.7457C144.123 6.35485 143.804 6.03521 143.415 6.03521ZM143.366 6.67449C143.415 6.67449 143.451 6.665 143.473 6.64601C143.495 6.6286 143.506 6.59695 143.506 6.55423C143.506 6.51151 143.495 6.48144 143.473 6.46245C143.451 6.44505 143.415 6.43555 143.366 6.43555H143.265V6.67607H143.366M143.265 6.84064V7.19351H143.025V6.25991H143.391C143.514 6.25991 143.602 6.28048 143.661 6.32162C143.719 6.36276 143.746 6.42764 143.746 6.51783C143.746 6.57955 143.732 6.63018 143.702 6.66974C143.672 6.7093 143.628 6.73779 143.568 6.75677C143.601 6.76469 143.629 6.78209 143.656 6.80899C143.683 6.83589 143.708 6.87545 143.735 6.92925L143.866 7.19351H143.61L143.497 6.96248C143.475 6.9166 143.451 6.88336 143.427 6.86754C143.404 6.85013 143.372 6.84064 143.333 6.84064H143.265Z" fill="#101010"/>
</svg>
