<svg width="194" height="32" viewBox="0 0 194 32" fill="none" xmlns="http://www.w3.org/2000/svg">
<path d="M13.7011 31.519C14.0057 31.8291 14.4308 32.0021 14.8665 32.0021H24.9001C30.1877 32.0021 34.4727 27.7381 34.4727 22.4762V9.52594C34.4727 4.26399 30.1877 0 24.9001 0H9.57258C4.28503 0.00210984 0 4.2661 0 9.52805V17.21C0 17.6446 0.175547 18.0603 0.48011 18.3704L13.7011 31.519ZM3.77108 10.5344C3.77108 8.01108 5.18603 5.81895 7.25875 4.68596C7.28413 4.67963 7.30317 4.66697 7.3222 4.65432C7.392 4.61634 7.45968 4.59102 7.52947 4.55515C8.31838 4.20703 9.17496 4.01292 10.0781 4.01292L24.4369 3.98128H24.6125C24.7119 3.98128 24.8134 3.99393 24.9128 4.00026C24.9572 4.00659 24.9995 4.00659 25.044 4.01292C25.4077 4.03824 25.7758 4.08677 26.1205 4.2007C26.203 4.23235 26.277 4.26399 26.3532 4.29353C26.4589 4.33151 26.5668 4.36105 26.6662 4.40535C26.7106 4.42434 26.7529 4.44966 26.7973 4.46865C26.884 4.50663 26.9665 4.54882 27.0532 4.59313C27.1971 4.66697 27.3409 4.74293 27.4847 4.82943C27.5651 4.88007 27.6476 4.9286 27.7279 4.97923C27.8654 5.07206 28.0029 5.17334 28.134 5.2725C28.2038 5.32947 28.2715 5.37799 28.3413 5.43496C28.5041 5.56577 28.6543 5.70924 28.7981 5.85904C28.8298 5.89068 28.8679 5.916 28.8975 5.95187C29.0731 6.13332 29.2359 6.32531 29.3861 6.52575C29.4305 6.58271 29.4665 6.6439 29.5109 6.70719C29.6166 6.85066 29.7182 7.00679 29.8112 7.16292C29.8556 7.24309 29.8979 7.32538 29.9423 7.40555C30.0227 7.54902 30.0925 7.69882 30.1623 7.84862C30.2004 7.94145 30.2363 8.03006 30.2744 8.11657C30.2998 8.17986 30.3315 8.23472 30.3505 8.29802C30.3569 8.317 30.3505 8.33599 30.3569 8.35498C30.4077 8.49212 30.4626 8.62926 30.5007 8.77906L10.0823 8.82337C9.05017 8.82337 8.18513 9.92681 8.18513 11.2391C8.18513 12.5515 9.04806 13.6549 10.076 13.6549L23.978 13.6043C27.6835 13.6043 30.7016 16.8429 30.7016 20.8242V21.0183C30.7016 24.9974 27.6835 28.2381 23.9843 28.2381H15.2197V25.5038C15.2197 25.0607 15.1816 24.6198 15.1076 24.1957C15.0695 23.9404 15.0209 23.6914 14.9574 23.4425H23.9843C25.0101 23.4425 25.8752 22.3327 25.8752 21.0204V20.8263C25.8752 19.5182 25.0122 18.4105 23.9843 18.4105L11.4973 18.4548C11.1208 18.1995 10.7274 17.9695 10.315 17.7754C9.19399 17.2332 7.93556 16.9273 6.60944 16.9273H5.96436C5.2516 16.3302 4.64882 15.5812 4.21101 14.7288C3.90433 14.1381 3.7732 13.4714 3.7732 12.8046V10.5429L3.77108 10.5344ZM1.58204 18.0708H6.60944C7.76847 18.0708 8.86194 18.3324 9.84542 18.7987C12.0175 19.8452 13.608 21.9002 13.9824 24.3603C14.0395 24.7274 14.0691 25.1071 14.0691 25.4932V30.4894C14.0691 30.6202 13.9126 30.6835 13.8195 30.5948L1.48051 18.3134C1.38745 18.2269 1.45513 18.0708 1.57992 18.0708H1.58204ZM42.5881 23.6703C41.6532 23.2885 40.9066 22.723 40.3482 21.974C39.7878 21.225 39.4938 20.3241 39.4642 19.2692H43.6477C43.709 19.8663 43.9163 20.3199 44.2674 20.6343C44.6206 20.9486 45.0796 21.1048 45.6464 21.1048C46.2132 21.1048 46.687 20.9718 47.0254 20.7039C47.3617 20.4359 47.5309 20.0667 47.5309 19.592C47.5309 19.1954 47.3976 18.8662 47.129 18.6067C46.8604 18.3472 46.5305 18.132 46.1413 17.9653C45.75 17.7965 45.1959 17.6066 44.4747 17.3936C43.4319 17.0729 42.5817 16.7522 41.9239 16.4294C41.2662 16.1087 40.6972 15.6361 40.2235 15.0073C39.7476 14.3807 39.5107 13.5621 39.5107 12.5536C39.5107 11.0556 40.0543 9.88251 41.1435 9.03435C42.2306 8.18619 43.6477 7.76211 45.3947 7.76211C47.1417 7.76211 48.6053 8.18619 49.6924 9.03435C50.7795 9.88251 51.3612 11.064 51.4394 12.5768H47.1882C47.1565 12.0578 46.9661 11.6484 46.6129 11.351C46.2597 11.0535 45.8092 10.9037 45.2572 10.9037C44.7813 10.9037 44.3985 11.0303 44.1088 11.2813C43.8169 11.5324 43.6731 11.8974 43.6731 12.37C43.6731 12.889 43.9184 13.2941 44.4091 13.5853C44.8998 13.8764 45.6654 14.1887 46.7081 14.5263C47.7487 14.8786 48.5968 15.2141 49.2483 15.5348C49.8997 15.8555 50.4623 16.3218 50.9382 16.9336C51.4119 17.5455 51.6509 18.3324 51.6509 19.2945C51.6509 20.2566 51.4161 21.0457 50.9508 21.7926C50.4834 22.5416 49.8045 23.1387 48.9162 23.5817C48.0279 24.0248 46.9767 24.2463 45.7669 24.2463C44.5571 24.2463 43.5292 24.0564 42.5944 23.6724L42.5881 23.6703ZM57.9156 7.98998V17.6193C57.9156 18.5835 58.1525 19.3241 58.6284 19.8431C59.1021 20.3621 59.8001 20.6216 60.7201 20.6216C61.6402 20.6216 62.3445 20.3621 62.8351 19.8431C63.3258 19.3241 63.5712 18.5814 63.5712 17.6193V7.98998H67.5009V17.5961C67.5009 19.0329 67.1942 20.2482 66.5808 21.2419C65.9675 22.2356 65.1447 22.9846 64.1105 23.4889C63.0763 23.9931 61.9236 24.2463 60.6524 24.2463C59.3813 24.2463 58.2434 23.9974 57.2388 23.5015C56.2342 23.0057 55.4432 22.2567 54.8594 21.2546C54.2778 20.2545 53.9859 19.035 53.9859 17.5982V7.99209H57.9156V7.98998ZM81.9084 15.7268C81.4791 16.499 80.8213 17.1214 79.933 17.5961C79.0447 18.0708 77.9406 18.3071 76.623 18.3071H74.1865V24.0839H70.2568V7.98998H76.623C77.9089 7.98998 78.9981 8.21151 79.8864 8.65458C80.7747 9.09765 81.441 9.7095 81.8851 10.488C82.3293 11.2666 82.5514 12.1611 82.5514 13.1696C82.5514 14.1022 82.3377 14.9546 81.9084 15.7247V15.7268ZM78.002 14.6613C78.37 14.309 78.554 13.8131 78.554 13.1718C78.554 12.5304 78.37 12.0324 78.002 11.6822C77.6339 11.3299 77.0756 11.1547 76.3247 11.1547H74.1865V15.1888H76.3247C77.0756 15.1888 77.6339 15.0136 78.002 14.6613ZM88.5284 11.1315V14.387H93.7906V17.4125H88.5284V20.9423H94.4801V24.0839H84.5987V7.98998H94.4801V11.1315H88.5284ZM105.738 24.0839L102.382 18.0096H101.441V24.0839H97.5109V7.98998H104.108C105.379 7.98998 106.464 8.21151 107.361 8.65458C108.257 9.09765 108.928 9.70528 109.372 10.4775C109.816 11.2497 110.038 12.1105 110.038 13.0578C110.038 14.1275 109.736 15.0833 109.131 15.923C108.526 16.7627 107.633 17.3598 106.453 17.7121L110.176 24.086H105.74L105.738 24.0839ZM101.441 15.2352H103.877C104.596 15.2352 105.138 15.0601 105.497 14.7077C105.857 14.3554 106.037 13.8596 106.037 13.2182C106.037 12.5768 105.857 12.1253 105.497 11.7729C105.138 11.4227 104.596 11.2455 103.877 11.2455H101.441V15.2352ZM127.202 15.7268C126.772 16.499 126.114 17.1214 125.226 17.5961C124.338 18.0708 123.234 18.3071 121.916 18.3071H119.48V24.0839H115.55V7.98998H121.916C123.202 7.98998 124.291 8.21151 125.18 8.65458C126.068 9.09765 126.734 9.7095 127.178 10.488C127.622 11.2666 127.845 12.1611 127.845 13.1696C127.845 14.1022 127.631 14.9546 127.202 15.7247V15.7268ZM123.295 14.6613C123.663 14.309 123.847 13.8131 123.847 13.1718C123.847 12.5304 123.663 12.0324 123.295 11.6822C122.927 11.332 122.369 11.1547 121.618 11.1547H119.48V15.1888H121.618C122.369 15.1888 122.927 15.0136 123.295 14.6613ZM138.018 21.2398H131.996L131.032 24.0818H126.918L132.756 7.98787H137.305L143.142 24.0818H138.982L138.018 21.2398ZM137.007 18.2143L135.008 12.3215L133.033 18.2143H137.009H137.007ZM155.56 7.98998V11.1315H151.285V24.0839H147.356V11.1315H143.081V7.98998H155.56ZM157.903 11.7603C158.593 10.5155 159.553 9.54493 160.788 8.84868C162.021 8.15455 163.419 7.80642 164.982 7.80642C166.898 7.80642 168.538 8.31067 169.9 9.31918C171.264 10.3277 172.175 11.7033 172.634 13.446H168.313C167.992 12.773 167.535 12.2624 166.945 11.9101C166.355 11.5598 165.684 11.3826 164.934 11.3826C163.724 11.3826 162.742 11.8025 161.992 12.6443C161.241 13.4861 160.866 14.6086 160.866 16.0137C160.866 17.4189 161.241 18.5434 161.992 19.3831C162.742 20.2229 163.724 20.6448 164.934 20.6448C165.684 20.6448 166.355 20.4697 166.945 20.1174C167.535 19.765 167.99 19.2544 168.313 18.5814H172.634C172.175 20.3241 171.264 21.6955 169.9 22.6956C168.535 23.6978 166.896 24.1978 164.982 24.1978C163.419 24.1978 162.021 23.8497 160.788 23.1534C159.555 22.4593 158.593 21.4909 157.903 20.2545C157.214 19.016 156.869 17.6024 156.869 16.0137C156.869 14.425 157.214 13.0072 157.903 11.7603ZM189.022 7.98998V24.0839H185.092V17.459H178.979V24.0839H175.05V7.98998H178.979V14.2942H185.092V7.98998H189.022ZM192.26 10.1842C191.602 10.1842 191.067 9.65042 191.067 8.99426C191.067 8.3381 191.602 7.80431 192.26 7.80431C192.917 7.80431 193.452 8.3381 193.452 8.99426C193.452 9.65042 192.917 10.1842 192.26 10.1842ZM192.26 8.04694C191.735 8.04694 191.31 8.47313 191.31 8.99426C191.31 9.51539 191.737 9.94158 192.26 9.94158C192.782 9.94158 193.209 9.51539 193.209 8.99426C193.209 8.47313 192.782 8.04694 192.26 8.04694ZM192.194 8.89932C192.26 8.89932 192.308 8.88666 192.338 8.86134C192.367 8.83814 192.382 8.79594 192.382 8.73897C192.382 8.68201 192.367 8.64192 192.338 8.6166C192.308 8.59339 192.26 8.58073 192.194 8.58073H192.059V8.90143H192.194M192.059 9.12085V9.59135H191.737V8.34654H192.228C192.393 8.34654 192.511 8.37397 192.59 8.42883C192.668 8.48368 192.704 8.57019 192.704 8.69045C192.704 8.77273 192.685 8.84024 192.645 8.89299C192.604 8.94574 192.545 8.98371 192.465 9.00903C192.509 9.01958 192.547 9.04279 192.583 9.07866C192.619 9.11452 192.653 9.16727 192.689 9.23901L192.864 9.59135H192.522L192.37 9.28331C192.34 9.22213 192.308 9.17782 192.277 9.15672C192.245 9.13351 192.202 9.12085 192.15 9.12085H192.059Z" fill="white"/>
</svg>
