<?xml version="1.0" encoding="utf-8"?>
<!-- Generator: Adobe Illustrator 22.0.1, SVG Export Plug-In . SVG Version: 6.00 Build 0)  -->
<svg version="1.1" id="Layer_1" xmlns="http://www.w3.org/2000/svg" xmlns:xlink="http://www.w3.org/1999/xlink" x="0px" y="0px"
	 viewBox="0 0 352 58" style="enable-background:new 0 0 352 58;" xml:space="preserve">
<style type="text/css">
	.st0{fill:#000105;}
</style>
<polygon class="st0" points="209.2,12.1 195.9,52.3 182.6,12.1 178.3,12.1 164.9,52.3 151.7,12.1 147.6,12.1 162.5,56.6 167.2,56.6 
	180.4,17.1 193.6,56.6 198.3,56.6 213.1,12.1 "/>
<g>
	<path class="st0" d="M232.1,14.7c9.2,0,16.3,7.3,17,17.3H214C215,21.8,222.4,14.7,232.1,14.7 M232.1,11c-12.7,0-22.2,10-22.2,23.3
		c0,13.5,9.4,23.2,22.4,23.2c7.6,0,13.5-2.6,18.5-8.2l0.2-0.2l-2.4-2.8l-0.2,0.2c-4.6,4.9-9.6,7.1-15.9,7.1
		c-10.5,0-17.9-7.2-18.5-18h39.2v-0.3c0-0.2,0-0.5,0-0.7c0-0.3,0-0.5,0-0.8v0C253,20.6,244.1,11,232.1,11"/>
	<path class="st0" d="M278,14.7c9.2,0,16.3,7.3,17,17.3H260C260.9,21.8,268.3,14.7,278,14.7 M278.1,11c-12.7,0-22.2,10-22.2,23.3
		c0,13.5,9.4,23.2,22.4,23.2c7.6,0,13.5-2.6,18.5-8.2l0.2-0.2l-2.4-2.8l-0.2,0.2c-4.6,4.9-9.6,7.1-15.9,7.1
		c-10.5,0-17.9-7.2-18.5-18h39.2v-0.3c0-0.2,0-0.5,0-0.7c0-0.3,0-0.5,0-0.8v0C298.9,20.6,290.1,11,278.1,11"/>
</g>
<polygon class="st0" points="329.7,12.1 310.3,32.4 305.6,32.4 305.6,12.1 301.7,12.1 301.7,56.6 305.6,56.6 305.6,36.1 310.3,36.1 
	330.8,56.6 336,56.6 313.4,34 334.7,12.1 "/>
<g>
	<path class="st0" d="M341.3,52.1v0.7h0.8c0.3,0,0.5-0.1,0.5-0.3c0-0.2-0.2-0.3-0.5-0.3H341.3z M342.1,51.2c1,0,1.5,0.5,1.5,1.3
		c0,0.6-0.4,1-1.1,1.1l1.1,1.3h-1.2l-1-1.3h-0.1v1.3h-1v-3.7H342.1z M344.8,53.1c0-1.7-1.3-3-3-3c-1.7,0-3,1.3-3,3s1.3,3,3,3
		C343.5,56.1,344.8,54.8,344.8,53.1 M346.1,53.1c0,2.3-1.9,4.2-4.3,4.2c-2.4,0-4.3-1.9-4.3-4.2c0-2.3,1.9-4.2,4.3-4.2
		C344.2,48.9,346.1,50.8,346.1,53.1"/>
	<path class="st0" d="M66.7,42.8v-4h-5.5c-3.9,0-6.1,1.3-6.1,3.5s1.6,3.5,4.4,3.5C62.7,45.7,65.2,44.2,66.7,42.8 M82.4,30.3v26.3
		H67.2v-3.4c-2.6,2.5-6.4,4.6-12.3,4.6c-9.6,0-16.1-5.3-16.1-14.3s7-14.3,20.1-14.3h7.3c-0.6-3.5-2.9-5.3-7.4-5.3
		c-5.3,0-9.2,1.8-12.2,3.7l-6.1-12.1c3.3-2.5,9.9-5.8,19.7-5.8C72.4,9.7,82.4,15.2,82.4,30.3"/>
	<path class="st0" d="M85.3,19.4h14.5v37.2H85.3V19.4z M100.6,8.9c0,4.6-3.5,8.2-8.1,8.2c-4.6,0-8.1-3.5-8.1-8.2
		c0-4.6,3.5-8.1,8.1-8.1C97.1,0.8,100.6,4.4,100.6,8.9"/>
</g>
<polygon class="st0" points="102.6,10.6 102.6,56.6 117.2,56.6 117.1,34.6 133.1,56.6 147.5,56.6 147.5,12.1 132.9,12.1 132.9,32.6 
	117,10.6 "/>
<g>
	<path class="st0" d="M15.4,23.6V31h7c2.2,0,3.7-1.3,3.7-3.7c0-2.4-1.5-3.7-3.7-3.7H15.4z M0.8,10.6h22.1c12.1,0,17.7,6.9,17.7,16.8
		c0,9.4-5.6,16-17.5,16h-7.8v13.3H0.8V10.6z"/>
</g>
</svg>
