<?xml version="1.0" encoding="UTF-8"?>
<svg id="Layer_2" xmlns="http://www.w3.org/2000/svg" xmlns:xlink="http://www.w3.org/1999/xlink" version="1.1" viewBox="0 0 610.86 258.64">
  <!-- Generator: Adobe Illustrator 30.0.0, SVG Export Plug-In . SVG Version: 2.1.1 Build 123)  -->
  <defs>
    <style>
      .st0 {
        fill: none;
      }

      .st1 {
        fill: #bd1b21;
      }

      .st2 {
        fill: #5f799b;
      }

      .st3 {
        clip-path: url(#clippath);
      }
    </style>
    <clipPath id="clippath">
      <rect class="st0" y=".01" width="610.86" height="258.48"/>
    </clipPath>
  </defs>
  <g class="st3">
    <g>
      <path class="st2" d="M153.16,167.11c9.89-7.09,18.2-19,23.79-34,15-5.55,27-13.8,34.17-23.64-7.65,28.18-29.76,50.14-58,57.6M53.24,109.52c7.13,9.84,19.14,18.09,34.18,23.64,5.58,14.94,13.89,26.87,23.78,34-28.24-7.46-50.35-29.42-58-57.6M111.2,10.29c-9.89,7.09-18.2,19-23.78,34-15,5.55-27,13.81-34.18,23.64,7.65-28.18,29.76-50.14,58-57.59M211.16,67.83c-7.14-9.83-19.14-18.09-34.19-23.64-5.61-14.94-13.91-26.86-23.81-33.95,28.23,7.46,50.34,29.41,58,57.59M184.56,92.43h26c-1.9,12.87-13.49,24.2-30.62,31.64,2.84-10.32,4.4-20.94,4.65-31.64M135.96,133.18v-40.75h41c-.24,11.86-2.2,23.63-5.8,34.93-11.38,3.61-23.22,5.57-35.16,5.82M136,140.69c10.76-.25,21.45-1.81,31.84-4.62-7.49,17-18.89,28.52-31.84,30.41v-25.79h0ZM128.44,140.69v25.83c-13-1.89-24.35-13.4-31.84-30.41,10.39,2.81,21.08,4.37,31.84,4.62M87.44,92.47h41v40.75c-11.94-.25-23.78-2.21-35.16-5.82-3.62-11.3-5.6-23.07-5.86-34.93M79.87,92.47c.25,10.69,1.82,21.32,4.65,31.63-17.13-7.43-28.71-18.76-30.61-31.63h25.96ZM79.87,84.96h-26c1.9-12.87,13.48-24.21,30.61-31.64-2.83,10.32-4.4,20.94-4.65,31.64M128.4,44.2v40.72h-41c.26-11.87,2.24-23.64,5.86-34.94,11.38-3.61,23.22-5.57,35.16-5.82M128.42,36.65c-10.76.25-21.45,1.81-31.84,4.62,7.49-17,18.89-28.52,31.84-30.41v25.79ZM135.98,36.65V10.86c12.95,1.89,24.35,13.4,31.84,30.41-10.39-2.81-21.08-4.37-31.84-4.62M176.98,84.92h-41v-40.76c11.94.25,23.79,2.21,35.18,5.82,3.62,11.3,5.6,23.07,5.86,34.94M184.57,84.92c-.25-10.7-1.81-21.32-4.65-31.64,17.13,7.43,28.72,18.77,30.62,31.64h-25.97ZM132.16,0C82.95,0,42.92,39.78,42.92,88.67s40,88.67,89.24,88.67,89.24-39.78,89.24-88.67S181.4,0,132.16,0"/>
      <path class="st1" d="M264.34,93.86h-37.07c-2.41,43.42-34.29,79.15-76.1,87.6v-87.6h-38.01v87.66c-41.8-8.46-73.69-44.19-76.09-87.61H0c2.53,63.71,50.89,115.9,113.16,124.85v39.25h38v-39.3c62.28-8.95,110.64-61.14,113.17-124.85"/>
      <path class="st1" d="M580.53,257.84h6.51v-32h.94l12.59,32h10.29v-40.55h-6.56v32h-.95l-12.25-32h-10.57v40.55ZM558.26,258.52c11.91,0,15.53-6.92,15.53-20.63s-3.63-21.24-15.53-21.24-15.53,7.62-15.53,21.21,3.62,20.66,15.53,20.66M558.26,251.9c-7.13,0-8.8-4.58-8.8-14s1.73-14.59,8.8-14.59,8.79,5.16,8.79,14.59-1.67,14-8.79,14M529.53,257.9h6.57v-40.61h-6.57v40.61ZM497.97,223.97h10.69v33.93h6.57v-33.99h10.57v-6.62h-27.83v6.68h0ZM480.27,223.68h2.61l4.28,19.57h-11.3l4.41-19.57h0ZM466.02,257.9h6.57l1.89-8h14l2.12,8h6.56l-9.07-40.55h-12.93l-9.14,40.55ZM454.02,257.9h6.57v-40.61h-6.57v40.61ZM447.57,250.9s-6.63.94-9.63.94c-7.35,0-8.69-3.81-8.69-14.12,0-10.84,1.73-14.24,8.46-14.24,3.34,0,9.86.88,9.86.88l.22-6c-3.6-.91-7.29-1.44-11-1.58-10.91,0-14.3,6.21-14.3,21,0,13.83,2.67,20.86,14.3,20.86,3.67-.17,7.32-.66,10.91-1.47l-.13-6.27h0ZM402.05,258.52c11.92,0,15.54-6.92,15.54-20.63s-3.62-21.21-15.54-21.21-15.53,7.62-15.53,21.21,3.64,20.63,15.53,20.63M402.05,251.9c-7.12,0-8.79-4.58-8.79-14s1.72-14.59,8.79-14.59,8.8,5.16,8.8,14.59-1.67,14-8.8,14M381.35,218.09c-3.8-.78-7.66-1.27-11.53-1.47-8.29,0-13.36,3.87-13.36,11.6,0,7.27,3.46,10,11.8,12.25,5.74,1.52,7.35,2.75,7.35,5.92,0,3.92-2.06,5.45-6.62,5.45-3.68-.14-7.35-.48-11-1l-.67,6.16c3.87.8,7.79,1.3,11.73,1.52,7.79,0,13.13-3.87,13.13-12.31,0-7.09-2.84-9.37-10.85-11.83-6.46-1.94-8.35-2.82-8.35-6.27s2.28-4.81,6.84-4.81c3.23,0,11,.94,11,.94l.53-6.15h0ZM351.79,218.09c-3.8-.78-7.66-1.27-11.53-1.47-8.29,0-13.36,3.87-13.36,11.6,0,7.27,3.45,10,11.81,12.25,5.73,1.52,7.34,2.75,7.34,5.92,0,3.92-2.06,5.45-6.62,5.45-3.68-.14-7.35-.48-11-1l-.67,6.16c3.86.79,7.78,1.3,11.72,1.52,7.8,0,13.14-3.87,13.14-12.31,0-7.09-2.84-9.37-10.85-11.83-6.46-1.94-8.35-2.82-8.35-6.27s2.28-4.81,6.84-4.81c3.23,0,11,.94,11,.94l.53-6.15h0ZM306.79,223.65h2.61l4.29,19.63h-11.3l4.4-19.63ZM292.56,257.84h6.6l1.89-8h14l2.12,8h6.56l-9.07-40.55h-12.92l-9.18,40.55Z"/>
      <path class="st1" d="M605.16,189.34s-6.62.94-9.63.94c-7.35,0-8.68-3.81-8.68-14.13,0-10.84,1.72-14.23,8.46-14.23,3.34,0,9.85.87,9.85.87l.22-6c-3.6-.92-7.29-1.45-11-1.59-10.91,0-14.31,6.22-14.31,21,0,13.83,2.67,20.87,14.31,20.87,3.68-.2,7.33-.72,10.92-1.55l-.14-6.18h0ZM566.92,196.34h6.57v-40.52h-6.57v40.52ZM553.5,168.97c0,4.17-1.67,7-6.18,7h-8.16v-13.58h8c4.23,0,6.29,2.16,6.29,6.61M553.01,196.37h7.18l-6.03-15.85c3.95-2.05,6.07-5.57,6.07-11.66,0-9.26-4.23-13.07-13-13.07h-14.58v40.55h6.51v-13.82h8.58l5.27,13.85h0ZM501.01,162.44h10.65v33.93h6.57v-33.93h10.58v-6.62h-27.83l.03,6.62h0ZM483.3,162.15h2.62l4.24,19.63h-11.3l4.44-19.63ZM469.05,196.37h6.57l1.89-8h14l2.11,8h6.54l-9.07-40.55h-12.88l-9.16,40.55ZM457.05,196.37h6.57v-40.55h-6.57v40.55ZM442.05,196.37h6.57v-40.55h-6.57v16.64h-15.95v-16.64h-6.51v40.55h6.51v-17.29h15.92l.03,17.29h0ZM413.05,189.37s-6.62.94-9.63.94c-7.35,0-8.68-3.81-8.68-14.13,0-10.84,1.72-14.23,8.46-14.23,3.34,0,9.85.87,9.85.87l.23-6c-3.6-.91-7.29-1.45-11-1.59-10.91,0-14.31,6.22-14.31,21,0,13.83,2.67,20.87,14.31,20.87,3.67-.21,7.31-.74,10.88-1.58l-.11-6.15h0ZM373.16,179.08l11.64-23.26h-7.29l-7.69,15.53-7.73-15.53h-7.3l11.81,23.2v17.35h6.56v-17.29ZM351.34,156.58c-3.8-.78-7.65-1.26-11.52-1.46-8.29,0-13.36,3.87-13.36,11.6,0,7.27,3.45,10,11.8,12.25,5.73,1.52,7.35,2.75,7.35,5.92,0,3.92-2.06,5.45-6.63,5.45-3.68-.14-7.35-.48-11-1l-.67,6.15c3.87.8,7.8,1.31,11.75,1.53,7.79,0,13.14-3.87,13.14-12.31,0-7.09-2.84-9.38-10.86-11.84-6.46-1.93-8.35-2.81-8.35-6.27,0-3.28,2.28-4.8,6.85-4.8,3.23,0,11,.93,11,.93l.5-6.15h0ZM302.07,177.52v-15.08h7.41c4.4,0,6.46,2.29,6.46,7.15s-2.06,7.91-6.46,7.91l-7.41.02ZM309.54,184.14c8.74,0,13.08-5.33,13.08-14.53s-4.34-13.77-13.08-13.77h-14v40.55h6.51v-12.27l7.49.02Z"/>
      <path class="st1" d="M466.8,113.92c0,8.38-1.12,14.42-8.74,14.42h-6.52v-27.43h6.52c7.62,0,8.74,4.69,8.74,13M458.06,134.91c12.86,0,15.47-8,15.47-21s-3-19.57-15.47-19.57h-13v40.55l13,.02ZM438.91,134.91v-6.62h-14.92v-33.94h-6.51v40.55h21.43s0,0,0,0ZM403.91,107.55c0,4.16-1.67,7-6.18,7h-8.13v-13.63h8c4.23,0,6.29,2.17,6.29,6.62M403.44,134.91h7.18l-6.06-15.82c4-2.06,6.06-5.57,6.06-11.66,0-9.27-4.23-13.07-13-13.07h-14.46v40.55h6.51v-13.83h8.58l5.19,13.83h0ZM360.86,135.53c11.91,0,15.53-6.91,15.53-20.62s-3.62-21.22-15.53-21.22-15.53,7.62-15.53,21.22,3.62,20.62,15.53,20.62M360.86,128.91c-7.13,0-8.79-4.57-8.79-14s1.72-14.59,8.79-14.59,8.8,5.15,8.8,14.59-1.67,14-8.8,14M292.86,94.34l8.52,40.55h10.19l5.48-30.36,5.62,30.36h10.19l8.46-40.55h-6.85l-6.17,33.52h-1.06l-6.46-33.33h-7.41l-6.34,33.4h-1.11l-6.24-33.52-6.82-.07h0Z"/>
    </g>
  </g>
</svg>